<svg width="85" height="85" viewBox="0 0 85 85" fill="none" xmlns="http://www.w3.org/2000/svg">
<circle cx="42.3826" cy="42.4241" r="41.92" fill="white"/>
<path d="M55.716 57.4241V54.0907C55.716 52.3226 55.0136 50.6269 53.7634 49.3767C52.5131 48.1265 50.8174 47.4241 49.0493 47.4241H35.716C33.9479 47.4241 32.2522 48.1265 31.0019 49.3767C29.7517 50.6269 29.0493 52.3226 29.0493 54.0907V57.4241" stroke="black" stroke-width="4" stroke-linecap="round" stroke-linejoin="round"/>
<path d="M42.3827 40.7574C46.0646 40.7574 49.0494 37.7726 49.0494 34.0907C49.0494 30.4088 46.0646 27.4241 42.3827 27.4241C38.7008 27.4241 35.7161 30.4088 35.7161 34.0907C35.7161 37.7726 38.7008 40.7574 42.3827 40.7574Z" stroke="black" stroke-width="4" stroke-linecap="round" stroke-linejoin="round"/>
</svg>
