<svg width="53" height="53" viewBox="0 0 53 53" fill="none" xmlns="http://www.w3.org/2000/svg">
<g clip-path="url(#clip0)">
<path d="M26.3827 33.3326C29.9725 33.3326 32.8827 30.4225 32.8827 26.8326C32.8827 23.2428 29.9725 20.3326 26.3827 20.3326C22.7928 20.3326 19.8827 23.2428 19.8827 26.8326C19.8827 30.4225 22.7928 33.3326 26.3827 33.3326Z" stroke="white" stroke-width="4" stroke-linecap="round" stroke-linejoin="round"/>
<path d="M42.416 33.3326C42.1276 33.9861 42.0415 34.711 42.169 35.4139C42.2964 36.1167 42.6315 36.7653 43.131 37.2759L43.261 37.4059C43.6639 37.8084 43.9835 38.2863 44.2016 38.8124C44.4196 39.3384 44.5319 39.9023 44.5319 40.4718C44.5319 41.0412 44.4196 41.6051 44.2016 42.1312C43.9835 42.6572 43.6639 43.1351 43.261 43.5376C42.8585 43.9405 42.3806 44.2601 41.8546 44.4782C41.3285 44.6963 40.7646 44.8085 40.1951 44.8085C39.6257 44.8085 39.0618 44.6963 38.5357 44.4782C38.0097 44.2601 37.5318 43.9405 37.1293 43.5376L36.9993 43.4076C36.4887 42.9081 35.8401 42.573 35.1373 42.4456C34.4344 42.3181 33.7095 42.4042 33.056 42.6926C32.4151 42.9673 31.8686 43.4233 31.4836 44.0046C31.0987 44.5859 30.8921 45.2671 30.8893 45.9643V46.3326C30.8893 47.4819 30.4328 48.5841 29.6201 49.3967C28.8075 50.2094 27.7053 50.6659 26.556 50.6659C25.4067 50.6659 24.3045 50.2094 23.4919 49.3967C22.6792 48.5841 22.2226 47.4819 22.2226 46.3326V46.1376C22.2059 45.4204 21.9737 44.7249 21.5564 44.1414C21.1391 43.558 20.5559 43.1135 19.8826 42.8659C19.2291 42.5775 18.5042 42.4915 17.8014 42.6189C17.0985 42.7464 16.45 43.0814 15.9393 43.5809L15.8093 43.7109C15.4069 44.1138 14.9289 44.4335 14.4029 44.6515C13.8768 44.8696 13.3129 44.9818 12.7435 44.9818C12.174 44.9818 11.6101 44.8696 11.0841 44.6515C10.558 44.4335 10.0801 44.1138 9.67765 43.7109C9.27475 43.3085 8.95513 42.8306 8.73706 42.3045C8.51899 41.7784 8.40674 41.2146 8.40674 40.6451C8.40674 40.0756 8.51899 39.5117 8.73706 38.9857C8.95513 38.4596 9.27475 37.9817 9.67765 37.5793L9.80765 37.4493C10.3071 36.9386 10.6422 36.2901 10.7697 35.5872C10.8971 34.8844 10.8111 34.1594 10.5226 33.5059C10.248 32.8651 9.79195 32.3186 9.21066 31.9336C8.62936 31.5486 7.94819 31.342 7.25098 31.3393H6.88265C5.73338 31.3393 4.63118 30.8827 3.81852 30.0701C3.00586 29.2574 2.54932 28.1552 2.54932 27.0059C2.54932 25.8567 3.00586 24.7545 3.81852 23.9418C4.63118 23.1291 5.73338 22.6726 6.88265 22.6726H7.07765C7.7948 22.6558 8.49033 22.4237 9.0738 22.0064C9.65727 21.5891 10.1017 21.0059 10.3493 20.3326C10.6377 19.6791 10.7238 18.9542 10.5963 18.2513C10.4689 17.5485 10.1338 16.8999 9.63432 16.3893L9.50432 16.2593C9.10142 15.8568 8.7818 15.3789 8.56372 14.8528C8.34565 14.3268 8.23341 13.7629 8.23341 13.1934C8.23341 12.624 8.34565 12.0601 8.56372 11.534C8.7818 11.008 9.10142 10.5301 9.50432 10.1276C9.90677 9.7247 10.3847 9.40508 10.9107 9.18701C11.4368 8.96894 12.0007 8.85669 12.5701 8.85669C13.1396 8.85669 13.7035 8.96894 14.2296 9.18701C14.7556 9.40508 15.2335 9.7247 15.636 10.1276L15.766 10.2576C16.2766 10.7571 16.9252 11.0922 17.628 11.2196C18.3309 11.3471 19.0558 11.261 19.7093 10.9726H19.8826C20.5235 10.6979 21.07 10.2419 21.455 9.66061C21.8399 9.07931 22.0465 8.39814 22.0493 7.70093V7.3326C22.0493 6.18333 22.5059 5.08113 23.3185 4.26847C24.1312 3.45581 25.2334 2.99927 26.3826 2.99927C27.5319 2.99927 28.6341 3.45581 29.4468 4.26847C30.2594 5.08113 30.716 6.18333 30.716 7.3326V7.5276C30.7188 8.2248 30.9253 8.90598 31.3103 9.48728C31.6953 10.0686 32.2418 10.5246 32.8826 10.7993C33.5361 11.0877 34.2611 11.1737 34.9639 11.0463C35.6668 10.9188 36.3153 10.5838 36.826 10.0843L36.956 9.95427C37.3584 9.55137 37.8363 9.23175 38.3624 9.01368C38.8885 8.7956 39.4523 8.68336 40.0218 8.68336C40.5913 8.68336 41.1552 8.7956 41.6812 9.01368C42.2073 9.23175 42.6852 9.55137 43.0876 9.95427C43.4905 10.3567 43.8102 10.8346 44.0282 11.3607C44.2463 11.8868 44.3586 12.4506 44.3586 13.0201C44.3586 13.5896 44.2463 14.1534 44.0282 14.6795C43.8102 15.2056 43.4905 15.6835 43.0876 16.0859L42.9576 16.2159C42.4581 16.7266 42.1231 17.3751 41.9956 18.078C41.8682 18.7808 41.9542 19.5058 42.2426 20.1593V20.3326C42.5173 20.9734 42.9733 21.52 43.5546 21.9049C44.1359 22.2899 44.8171 22.4965 45.5143 22.4993H45.8826C47.0319 22.4993 48.1341 22.9558 48.9468 23.7685C49.7594 24.5811 50.216 25.6833 50.216 26.8326C50.216 27.9819 49.7594 29.0841 48.9468 29.8967C48.1341 30.7094 47.0319 31.1659 45.8826 31.1659H45.6876C44.9904 31.1687 44.3093 31.3753 43.728 31.7603C43.1467 32.1452 42.6906 32.6918 42.416 33.3326V33.3326Z" stroke="white" stroke-width="4" stroke-linecap="round" stroke-linejoin="round"/>
</g>
<defs>
<clipPath id="clip0">
<rect width="52" height="52" fill="white" transform="translate(0.38269 0.832642)"/>
</clipPath>
</defs>
</svg>
